<?xml version="1.0" encoding="utf-8"?>
<!-- Generator: Adobe Illustrator 23.0.1, SVG Export Plug-In . SVG Version: 6.00 Build 0)  -->
<svg version="1.1" id="Layer_1" xmlns="http://www.w3.org/2000/svg" xmlns:xlink="http://www.w3.org/1999/xlink" x="0px" y="0px"
	 viewBox="0 0 30 30" style="enable-background:new 0 0 30 30;" xml:space="preserve">
<style type="text/css">
	.st0{fill:#FFFFFF;}
</style>
<path class="st0" d="M22.1,20.4c-0.3,0.8-0.9,1.4-1.7,1.7c-1.2,0.5-4,0.4-5.4,0.4s-4.2,0.1-5.4-0.4c-0.8-0.3-1.4-0.9-1.7-1.7
	c-0.5-1.2-0.4-4-0.4-5.4c0-1.3-0.1-4.2,0.4-5.4c0.3-0.8,0.9-1.4,1.7-1.7c1.2-0.5,4-0.4,5.4-0.4c1.3,0,4.2-0.1,5.4,0.4
	c0.8,0.3,1.4,0.9,1.7,1.7c0.5,1.2,0.4,4,0.4,5.4C22.5,16.3,22.6,19.2,22.1,20.4z M24,11.2c-0.1-1.5-0.4-2.8-1.5-3.8
	c-1.1-1.1-2.4-1.4-3.8-1.5c-1.5-0.1-6-0.1-7.5,0C9.8,6,8.5,6.4,7.4,7.4S6,9.8,6,11.2c-0.1,1.5-0.1,6,0,7.5c0.1,1.5,0.4,2.8,1.5,3.8
	c1.1,1.1,2.4,1.4,3.8,1.5c1.5,0.1,6,0.1,7.5,0c1.5-0.1,2.8-0.4,3.8-1.5c1.1-1.1,1.4-2.4,1.5-3.8C24.1,17.2,24.1,12.8,24,11.2z
	 M21,10.1c0,0.6-0.5,1.1-1.1,1.1c-0.6,0-1.1-0.5-1.1-1.1s0.5-1.1,1.1-1.1C20.5,9.1,21,9.5,21,10.1z M15,18c-1.7,0-3-1.4-3-3
	c0-1.7,1.4-3,3-3c1.7,0,3,1.4,3,3C18,16.7,16.7,18,15,18z M15,10.3c-2.6,0-4.7,2.1-4.7,4.7c0,2.6,2.1,4.7,4.7,4.7
	c2.6,0,4.7-2.1,4.7-4.7S17.6,10.3,15,10.3z"/>
</svg>
